<?xml version="1.0" encoding="utf-8"?>
<!-- Generator: Adobe Illustrator 27.5.0, SVG Export Plug-In . SVG Version: 6.00 Build 0)  -->
<svg version="1.1" xmlns="http://www.w3.org/2000/svg" xmlns:xlink="http://www.w3.org/1999/xlink" x="0px" y="0px"
	 viewBox="0 0 500 500" style="enable-background:new 0 0 500 500;" xml:space="preserve">
<g id="BACKGROUND">
	<rect style="fill:#FFFFFF;" width="500" height="500"/>
</g>
<g id="OBJECTS">
	<g>
		<g>
			<linearGradient id="SVGID_1_" gradientUnits="userSpaceOnUse" x1="277.3535" y1="114.0687" x2="427.6729" y2="114.0687">
				<stop  offset="0" style="stop-color:#C6E9E9"/>
				<stop  offset="0.9987" style="stop-color:#FEF7D3"/>
			</linearGradient>
			<path style="fill:url(#SVGID_1_);" d="M277.435,124.611c0,0,1.283-65.289,61.911-75.842
				c60.628-10.553,45.329,30.294,71.118,34.067c25.789,3.772,30.549,94.422-42.661,97.996
				C294.593,184.406,275.937,152.196,277.435,124.611z"/>
			
				<linearGradient id="SVGID_00000173148671294461543130000006938120971400547746_" gradientUnits="userSpaceOnUse" x1="57.8333" y1="219.8266" x2="220.4062" y2="219.8266">
				<stop  offset="0" style="stop-color:#C6E9E9"/>
				<stop  offset="0.9987" style="stop-color:#FEF7D3"/>
			</linearGradient>
			<path style="fill:url(#SVGID_00000173148671294461543130000006938120971400547746_);" d="M175.696,160.383
				c0,0-29.055-46.769-84.942-25.366s-28.203,86.658-7.197,95.567c21.006,8.91,1.269,67.992,95.769,79.108
				C273.828,320.807,175.696,160.383,175.696,160.383z"/>
			
				<linearGradient id="SVGID_00000147916108681009211220000008157420649415185840_" gradientUnits="userSpaceOnUse" x1="236.4059" y1="328.0779" x2="442.1667" y2="328.0779">
				<stop  offset="0.0013" style="stop-color:#FEF7D3"/>
				<stop  offset="1" style="stop-color:#C6E9E9"/>
			</linearGradient>
			<path style="fill:url(#SVGID_00000147916108681009211220000008157420649415185840_);" d="M236.434,371.153
				c0,0-3.208,66.307,58.938,59.293c56.418-6.367,47.48-54.201,87.005-68.407c49.337-17.733,107.904-140.724-5.623-136.755
				C263.226,229.253,236.546,342.424,236.434,371.153z"/>
		</g>
		<g>
			<path style="fill:#1A3247;" d="M348.865,367.57l-209.114,13.106c-8.942,0.56-21.946-7.014-14.643-23.272l47.2-92.891
				l198.438-12.437c5.57-0.349,10.01,4.585,9.078,10.087l-15.517,91.568C362.982,361.361,356.595,367.085,348.865,367.57z"/>
			<path style="fill:#1A3247;" d="M372.389,251.972l-202.308,12.68l-8.628-137.664c-0.425-6.787,4.732-12.634,11.519-13.059
				l186.99-11.72c6.787-0.425,12.62,4.519,13.243,14.451l7.864,125.472C381.389,247.246,377.503,251.652,372.389,251.972z"/>
			<path style="fill:#22425E;" d="M373.854,251.88l-211.568,13.26l-8.708-138.939c-0.381-6.083,4.241-11.324,10.324-11.705
				l189.538-11.879c6.083-0.381,11.324,4.241,11.705,10.324L373.854,251.88z"/>
			
				<rect x="167.545" y="123.71" transform="matrix(0.998 -0.0626 0.0626 0.998 -11.0914 16.7932)" style="fill:#C6E9E9;" width="190.227" height="123.653"/>
			<g>
				<path style="fill:#FFFFFF;" d="M245.488,116.65c0.068,1.076-0.75,2.003-1.827,2.071c-1.076,0.067-2.003-0.75-2.071-1.826
					c-0.067-1.076,0.75-2.003,1.826-2.071C244.494,114.756,245.421,115.574,245.488,116.65z"/>
				<path style="fill:#FFFFFF;" d="M273.767,115.988l-21.992,1.378c-0.713,0.045-1.328-0.498-1.373-1.211
					c-0.045-0.713,0.497-1.328,1.211-1.373l21.992-1.378c0.713-0.045,1.328,0.498,1.373,1.211
					C275.022,115.328,274.48,115.943,273.767,115.988z"/>
			</g>
			
				<rect x="180.756" y="148.545" transform="matrix(0.998 -0.0626 0.0626 0.998 -9.3439 15.0858)" style="fill:#A0DBDB;" width="111.012" height="16.457"/>
			
				<rect x="182.498" y="173.037" transform="matrix(0.998 -0.0626 0.0626 0.998 -11.0795 15.2493)" style="fill:#A0DBDB;" width="111.012" height="23.073"/>
			
				<rect x="184.796" y="210.731" transform="matrix(0.998 -0.0626 0.0626 0.998 -13.4973 13.408)" style="fill:#A0DBDB;" width="45.186" height="23.073"/>
			
				<rect x="237.121" y="207.032" transform="matrix(0.998 -0.0626 0.0626 0.998 -13.1505 17.0927)" style="fill:#A0DBDB;" width="58.571" height="23.073"/>
			
				<rect x="306.502" y="143.243" transform="matrix(0.998 -0.0626 0.0626 0.998 -9.2414 20.391)" style="fill:#A0DBDB;" width="29.101" height="29.101"/>
			
				<rect x="309.349" y="179.974" transform="matrix(0.998 -0.0626 0.0626 0.998 -12.0783 20.6593)" style="fill:#A0DBDB;" width="29.101" height="46.504"/>
			<g>
				<path style="fill:#C6E9E9;" d="M336.592,223.169c-0.321,0-0.637-0.154-0.83-0.441l-25.061-37.183
					c-0.309-0.458-0.188-1.08,0.271-1.388c0.456-0.309,1.078-0.189,1.388,0.27l25.061,37.183c0.309,0.458,0.188,1.08-0.271,1.388
					C336.979,223.114,336.785,223.169,336.592,223.169z"/>
				<path style="fill:#C6E9E9;" d="M313.95,224.589c-0.151,0-0.306-0.034-0.45-0.107c-0.493-0.249-0.69-0.851-0.441-1.344
					l20.222-40.021c0.249-0.492,0.851-0.691,1.344-0.441c0.493,0.249,0.69,0.851,0.441,1.344l-20.222,40.021
					C314.668,224.388,314.315,224.589,313.95,224.589z"/>
			</g>
			<path style="fill:#22425E;" d="M342.599,356.783l-209.114,13.106c-6.651,0.417-11.285-6.489-8.377-12.486l37.178-92.263
				l211.568-13.26l-15.812,91.063C356.716,350.574,350.329,356.298,342.599,356.783z"/>
			<polygon style="fill:#4E687E;" points="342.85,327.977 149.098,340.12 173.943,272.765 356.56,261.319 			"/>
			
				<rect x="224.646" y="366.443" transform="matrix(0.998 -0.0626 0.0626 0.998 -22.5092 16.1329)" style="fill:none;stroke:#333333;stroke-width:0.5;stroke-linecap:round;stroke-linejoin:round;stroke-miterlimit:10;" width="43.512" height="2.231"/>
			<g>
				<path style="fill:#A0DBDB;" d="M189.753,287.338l-13.481,0.845c-2.297,0.144-1.68-2.174-1.434-2.682l3.221-6.707l13.41-1.958
					l0.307,4.903l-0.715,4.427C190.95,286.811,190.408,287.297,189.753,287.338z"/>
				<path style="fill:#A0DBDB;" d="M205.343,286.361l-10.141,0.636c-2.297,0.144-1.68-2.174-1.434-2.682l0.994-6.568l12.296-1.889
					l0.307,4.903l-0.714,4.427C206.54,285.834,205.998,286.319,205.343,286.361z"/>
				<path style="fill:#A0DBDB;" d="M220.933,285.383l-10.141,0.636c-2.297,0.144-1.68-2.174-1.434-2.682l0.994-6.568l12.297-1.889
					l0.307,4.903l-0.715,4.427C222.13,284.857,221.589,285.342,220.933,285.383z"/>
				<path style="fill:#A0DBDB;" d="M236.524,284.406l-10.141,0.636c-2.297,0.144-1.68-2.174-1.434-2.682l0.994-6.568l12.297-1.889
					l0.307,4.903l-0.715,4.427C237.72,283.88,237.179,284.365,236.524,284.406z"/>
				<path style="fill:#A0DBDB;" d="M252.114,283.429l-10.141,0.635c-2.297,0.144-1.68-2.174-1.434-2.682l0.994-6.568l12.297-1.889
					l0.307,4.903l-0.715,4.427C253.311,282.903,252.769,283.388,252.114,283.429z"/>
				<path style="fill:#A0DBDB;" d="M267.704,282.452l-10.141,0.635c-2.297,0.144-1.68-2.174-1.434-2.682l0.994-6.568l12.297-1.889
					l0.307,4.903l-0.714,4.427C268.901,281.926,268.359,282.411,267.704,282.452z"/>
				<path style="fill:#A0DBDB;" d="M283.294,281.475l-10.141,0.636c-2.297,0.144-1.68-2.174-1.434-2.682l0.994-6.568l12.297-1.889
					l0.307,4.903l-0.715,4.427C284.491,280.949,283.949,281.434,283.294,281.475z"/>
				<path style="fill:#A0DBDB;" d="M298.884,280.498l-10.14,0.636c-2.297,0.144-1.68-2.174-1.434-2.682l0.994-6.568l12.297-1.889
					l0.307,4.903l-0.715,4.427C300.081,279.971,299.54,280.457,298.884,280.498z"/>
				<path style="fill:#A0DBDB;" d="M314.474,279.521l-10.141,0.636c-2.297,0.144-1.68-2.174-1.434-2.683l0.994-6.568l12.297-1.889
					l0.307,4.903l-0.715,4.427C315.671,278.994,315.13,279.48,314.474,279.521z"/>
				<path style="fill:#A0DBDB;" d="M344.541,277.636l-24.617,1.543c-2.297,0.144-1.68-2.174-1.434-2.682l0.994-6.568l26.773-2.796
					l0.307,4.903l-0.715,4.427C345.738,277.11,345.197,277.595,344.541,277.636z"/>
				<path style="fill:#A0DBDB;" d="M194.908,316.081l-29.071,1.822c-2.297,0.144-1.68-2.174-1.434-2.682l3.221-6.707l29-2.936
					l0.307,4.903l-0.715,4.427C196.105,315.555,195.564,316.04,194.908,316.081z"/>
				<path style="fill:#A0DBDB;" d="M210.499,315.104l-10.141,0.636c-2.297,0.144-1.68-2.174-1.434-2.682l0.994-6.568l12.296-1.889
					l0.307,4.903l-0.715,4.427C211.695,314.578,211.154,315.063,210.499,315.104z"/>
				<path style="fill:#A0DBDB;" d="M226.089,314.127l-10.141,0.636c-2.297,0.144-1.68-2.174-1.434-2.682l0.994-6.568l12.297-1.889
					l0.307,4.903l-0.715,4.427C227.286,313.601,226.744,314.086,226.089,314.127z"/>
				<path style="fill:#A0DBDB;" d="M241.679,313.15l-10.141,0.636c-2.297,0.144-1.68-2.174-1.434-2.682l0.994-6.568l12.297-1.889
					l0.307,4.903l-0.715,4.427C242.876,312.624,242.334,313.109,241.679,313.15z"/>
				<path style="fill:#A0DBDB;" d="M257.269,312.173l-10.141,0.635c-2.297,0.144-1.68-2.174-1.434-2.682l0.994-6.568l12.296-1.889
					l0.307,4.903L258.578,311C258.466,311.647,257.924,312.132,257.269,312.173z"/>
				<path style="fill:#A0DBDB;" d="M272.859,311.196l-10.141,0.635c-2.297,0.144-1.68-2.174-1.434-2.682l0.994-6.568l12.297-1.889
					l0.307,4.903l-0.715,4.427C274.056,310.669,273.515,311.155,272.859,311.196z"/>
				<path style="fill:#A0DBDB;" d="M288.45,310.219l-10.141,0.636c-2.297,0.144-1.68-2.174-1.434-2.682l0.994-6.568l12.297-1.889
					l0.307,4.903l-0.714,4.427C289.646,309.692,289.105,310.178,288.45,310.219z"/>
				<path style="fill:#A0DBDB;" d="M304.04,309.242l-10.141,0.636c-2.297,0.144-1.68-2.174-1.434-2.682l0.994-6.568l12.297-1.889
					l0.307,4.903l-0.715,4.427C305.236,308.715,304.695,309.201,304.04,309.242z"/>
				<path style="fill:#A0DBDB;" d="M334.107,307.357l-24.617,1.543c-2.297,0.144-1.68-2.174-1.434-2.682l0.994-6.568l26.773-2.796
					l0.307,4.903l-0.715,4.427C335.303,306.831,334.762,307.316,334.107,307.357z"/>
				<path style="fill:#A0DBDB;" d="M185.092,302.163l-13.481,0.845c-2.297,0.144-1.68-2.174-1.434-2.682l3.221-6.707l13.41-1.958
					l0.307,4.903l-0.715,4.427C186.289,301.637,185.748,302.122,185.092,302.163z"/>
				<path style="fill:#A0DBDB;" d="M200.683,301.186l-10.141,0.636c-2.297,0.144-1.68-2.174-1.434-2.682l0.994-6.568l12.296-1.889
					l0.307,4.903l-0.714,4.427C201.879,300.66,201.338,301.145,200.683,301.186z"/>
				<path style="fill:#A0DBDB;" d="M216.273,300.209l-10.141,0.635c-2.297,0.144-1.68-2.174-1.434-2.682l0.994-6.568l12.296-1.889
					l0.307,4.903l-0.715,4.427C217.47,299.683,216.928,300.168,216.273,300.209z"/>
				<path style="fill:#A0DBDB;" d="M231.863,299.232l-10.141,0.635c-2.297,0.144-1.68-2.174-1.434-2.682l0.994-6.568l12.297-1.889
					l0.307,4.903l-0.715,4.427C233.06,298.706,232.518,299.191,231.863,299.232z"/>
				<path style="fill:#A0DBDB;" d="M247.453,298.255l-10.141,0.636c-2.297,0.144-1.68-2.174-1.434-2.682l0.994-6.568l12.297-1.889
					l0.307,4.903l-0.715,4.427C248.65,297.728,248.108,298.214,247.453,298.255z"/>
				<path style="fill:#A0DBDB;" d="M263.043,297.278l-10.141,0.636c-2.297,0.144-1.68-2.174-1.434-2.682l0.994-6.568l12.296-1.889
					l0.307,4.903l-0.715,4.427C264.24,296.751,263.699,297.237,263.043,297.278z"/>
				<path style="fill:#A0DBDB;" d="M278.634,296.301l-10.141,0.636c-2.297,0.144-1.68-2.174-1.434-2.682l0.994-6.568l12.297-1.889
					l0.307,4.903l-0.715,4.427C279.83,295.774,279.289,296.259,278.634,296.301z"/>
				<path style="fill:#A0DBDB;" d="M294.224,295.323l-10.141,0.635c-2.297,0.144-1.68-2.174-1.434-2.682l0.994-6.568l12.297-1.889
					l0.307,4.903l-0.715,4.427C295.42,294.797,294.879,295.282,294.224,295.323z"/>
				<path style="fill:#A0DBDB;" d="M309.814,294.346l-10.141,0.635c-2.297,0.144-1.68-2.174-1.434-2.682l0.994-6.568l12.297-1.889
					l0.307,4.903l-0.715,4.427C311.011,293.82,310.469,294.305,309.814,294.346z"/>
				<path style="fill:#A0DBDB;" d="M325.404,293.369l-10.141,0.636c-2.297,0.144-1.68-2.174-1.434-2.682l0.994-6.568l12.297-1.889
					l0.307,4.903l-0.714,4.427C326.601,292.843,326.059,293.328,325.404,293.369z"/>
				<path style="fill:#A0DBDB;" d="M340.994,292.392l-10.141,0.636c-2.297,0.144-1.68-2.174-1.434-2.682l0.994-6.568l12.297-1.889
					l0.307,4.903l-0.715,4.427C342.191,291.866,341.65,292.351,340.994,292.392z"/>
				<path style="fill:#A0DBDB;" d="M173.544,331.954l-13.481,0.845c-2.297,0.144-1.68-2.174-1.434-2.682l3.221-6.707l13.41-1.958
					l0.307,4.903l-0.714,4.427C174.741,331.428,174.199,331.913,173.544,331.954z"/>
				<path style="fill:#A0DBDB;" d="M189.134,330.977l-10.141,0.636c-2.297,0.144-1.68-2.174-1.434-2.682l0.994-6.568l12.297-1.889
					l0.307,4.903l-0.715,4.427C190.331,330.451,189.79,330.936,189.134,330.977z"/>
				<path style="fill:#A0DBDB;" d="M204.724,330l-10.141,0.635c-2.297,0.144-1.68-2.174-1.434-2.682l0.994-6.568l12.297-1.889
					l0.307,4.903l-0.715,4.427C205.921,329.473,205.38,329.959,204.724,330z"/>
				<path style="fill:#A0DBDB;" d="M220.315,329.023l-10.141,0.635c-2.297,0.144-1.68-2.174-1.434-2.682l0.994-6.568l12.297-1.889
					l0.307,4.903l-0.715,4.427C221.511,328.496,220.97,328.982,220.315,329.023z"/>
				<path style="fill:#A0DBDB;" d="M235.905,328.045l-10.141,0.636c-2.297,0.144-1.68-2.174-1.434-2.682l0.994-6.568l12.297-1.889
					l0.307,4.903l-0.714,4.427C237.102,327.519,236.56,328.004,235.905,328.045z"/>
				<path style="fill:#A0DBDB;" d="M251.495,327.068l-10.141,0.636c-2.297,0.144-1.68-2.174-1.434-2.682l0.994-6.568l12.297-1.889
					l0.307,4.903l-0.715,4.427C252.692,326.542,252.15,327.027,251.495,327.068z"/>
				<path style="fill:#A0DBDB;" d="M267.085,326.091l-10.141,0.636c-2.297,0.144-1.68-2.174-1.434-2.682l0.994-6.568l12.297-1.889
					l0.307,4.903l-0.715,4.427C268.282,325.565,267.74,326.05,267.085,326.091z"/>
				<path style="fill:#A0DBDB;" d="M282.675,325.114l-10.141,0.635c-2.297,0.144-1.68-2.174-1.434-2.682l0.994-6.568l12.297-1.889
					l0.307,4.903l-0.714,4.427C283.872,324.588,283.331,325.073,282.675,325.114z"/>
				<path style="fill:#A0DBDB;" d="M298.266,324.137l-10.141,0.635c-2.297,0.144-1.68-2.174-1.434-2.682l0.994-6.568l12.297-1.889
					l0.307,4.903l-0.715,4.427C299.462,323.611,298.921,324.096,298.266,324.137z"/>
				<path style="fill:#A0DBDB;" d="M313.856,323.16l-10.141,0.636c-2.297,0.144-1.68-2.174-1.434-2.682l0.994-6.568l12.297-1.889
					l0.307,4.903l-0.714,4.427C315.052,322.634,314.511,323.119,313.856,323.16z"/>
				<path style="fill:#A0DBDB;" d="M329.446,322.183l-10.141,0.636c-2.297,0.144-1.68-2.174-1.434-2.682l0.994-6.568l12.296-1.889
					l0.307,4.903l-0.715,4.427C330.643,321.656,330.101,322.142,329.446,322.183z"/>
			</g>
			<g>
				<path style="fill:#E8F6F6;" d="M188.82,285.727l-13.272,0.832c-0.564,0.035-0.957-0.55-0.71-1.058l3.152-7.821l13.48-0.845
					l-1.34,7.719C190.017,285.2,189.475,285.686,188.82,285.727z"/>
				<path style="fill:#E8F6F6;" d="M204.41,284.75l-9.931,0.622c-0.564,0.035-0.957-0.55-0.71-1.058l0.924-7.681l12.366-0.775
					l-1.34,7.719C205.607,284.223,205.065,284.708,204.41,284.75z"/>
				<path style="fill:#E8F6F6;" d="M220,283.772l-9.931,0.622c-0.564,0.035-0.957-0.55-0.71-1.058l0.924-7.682l12.366-0.775
					l-1.34,7.719C221.197,283.246,220.655,283.731,220,283.772z"/>
				<path style="fill:#E8F6F6;" d="M235.59,282.795l-9.931,0.622c-0.564,0.035-0.957-0.55-0.71-1.058l0.924-7.681l12.366-0.775
					l-1.34,7.719C236.787,282.269,236.246,282.754,235.59,282.795z"/>
				<path style="fill:#E8F6F6;" d="M251.181,281.818l-9.931,0.622c-0.564,0.035-0.956-0.55-0.71-1.058l0.924-7.681l12.366-0.775
					l-1.34,7.719C252.377,281.292,251.836,281.777,251.181,281.818z"/>
				<path style="fill:#E8F6F6;" d="M266.771,280.841l-9.931,0.622c-0.564,0.035-0.957-0.55-0.71-1.058l0.924-7.681l12.366-0.775
					l-1.34,7.719C267.967,280.315,267.426,280.8,266.771,280.841z"/>
				<path style="fill:#E8F6F6;" d="M282.361,279.864l-9.931,0.622c-0.564,0.035-0.957-0.55-0.71-1.058l0.924-7.681l12.366-0.775
					l-1.34,7.719C283.558,279.338,283.016,279.823,282.361,279.864z"/>
				<path style="fill:#E8F6F6;" d="M297.951,278.887l-9.931,0.622c-0.564,0.035-0.957-0.55-0.71-1.058l0.924-7.681l12.366-0.775
					l-1.34,7.719C299.148,278.361,298.606,278.846,297.951,278.887z"/>
				<path style="fill:#E8F6F6;" d="M313.541,277.91l-9.931,0.622c-0.564,0.035-0.957-0.55-0.71-1.058l0.924-7.681l12.366-0.775
					l-1.34,7.719C314.738,277.383,314.197,277.869,313.541,277.91z"/>
				<path style="fill:#E8F6F6;" d="M343.608,276.025l-24.408,1.53c-0.564,0.035-0.957-0.55-0.71-1.058l0.924-7.681l26.843-1.682
					l-1.34,7.719C344.805,275.499,344.263,275.984,343.608,276.025z"/>
				<path style="fill:#E8F6F6;" d="M193.975,314.47l-28.862,1.809c-0.564,0.035-0.956-0.55-0.71-1.058l3.152-7.821l29.07-1.822
					l-1.34,7.719C195.172,313.944,194.631,314.43,193.975,314.47z"/>
				<path style="fill:#E8F6F6;" d="M209.566,313.493l-9.931,0.622c-0.564,0.035-0.957-0.55-0.71-1.058l0.924-7.681l12.366-0.775
					l-1.34,7.719C210.762,312.967,210.221,313.452,209.566,313.493z"/>
				<path style="fill:#E8F6F6;" d="M225.156,312.516l-9.931,0.622c-0.564,0.035-0.957-0.55-0.71-1.058l0.924-7.681l12.366-0.775
					l-1.34,7.719C226.352,311.99,225.811,312.475,225.156,312.516z"/>
				<path style="fill:#E8F6F6;" d="M240.746,311.539l-9.931,0.622c-0.564,0.035-0.957-0.55-0.71-1.058l0.924-7.681l12.366-0.775
					l-1.34,7.719C241.943,311.013,241.401,311.498,240.746,311.539z"/>
				<path style="fill:#E8F6F6;" d="M256.336,310.562l-9.931,0.622c-0.564,0.035-0.957-0.55-0.71-1.058l0.924-7.681l12.366-0.775
					l-1.34,7.719C257.533,310.036,256.991,310.521,256.336,310.562z"/>
				<path style="fill:#E8F6F6;" d="M271.926,309.585l-9.931,0.622c-0.564,0.035-0.957-0.55-0.71-1.058l0.924-7.681l12.366-0.775
					l-1.34,7.719C273.123,309.059,272.581,309.544,271.926,309.585z"/>
				<path style="fill:#E8F6F6;" d="M287.516,308.608l-9.931,0.622c-0.564,0.035-0.957-0.55-0.71-1.058l0.924-7.681l12.366-0.775
					l-1.34,7.719C288.713,308.082,288.172,308.567,287.516,308.608z"/>
				<path style="fill:#E8F6F6;" d="M303.107,307.631l-9.931,0.622c-0.564,0.035-0.957-0.55-0.71-1.058l0.924-7.681l12.366-0.775
					l-1.34,7.719C304.303,307.104,303.762,307.59,303.107,307.631z"/>
				<path style="fill:#E8F6F6;" d="M333.173,305.746l-24.408,1.53c-0.564,0.035-0.957-0.55-0.71-1.058l0.924-7.681l26.843-1.682
					l-1.34,7.719C334.37,305.22,333.829,305.705,333.173,305.746z"/>
				<path style="fill:#E8F6F6;" d="M184.159,300.552l-13.272,0.832c-0.564,0.035-0.957-0.55-0.71-1.058l3.152-7.821l13.48-0.845
					l-1.34,7.719C185.356,300.026,184.815,300.511,184.159,300.552z"/>
				<path style="fill:#E8F6F6;" d="M199.75,299.575l-9.931,0.622c-0.564,0.035-0.956-0.55-0.71-1.058l0.924-7.681l12.366-0.775
					l-1.34,7.719C200.946,299.049,200.405,299.534,199.75,299.575z"/>
				<path style="fill:#E8F6F6;" d="M215.34,298.598l-9.931,0.622c-0.564,0.035-0.957-0.55-0.71-1.058l0.924-7.681l12.366-0.775
					l-1.34,7.719C216.536,298.072,215.995,298.557,215.34,298.598z"/>
				<path style="fill:#E8F6F6;" d="M230.93,297.621l-9.931,0.622c-0.564,0.035-0.957-0.55-0.71-1.058l0.924-7.681l12.366-0.775
					l-1.34,7.719C232.127,297.095,231.585,297.58,230.93,297.621z"/>
				<path style="fill:#E8F6F6;" d="M246.52,296.644l-9.931,0.622c-0.564,0.035-0.957-0.55-0.71-1.058l0.924-7.681l12.366-0.775
					l-1.34,7.719C247.717,296.117,247.175,296.603,246.52,296.644z"/>
				<path style="fill:#E8F6F6;" d="M262.11,295.667l-9.931,0.622c-0.564,0.035-0.957-0.55-0.71-1.058l0.924-7.682l12.366-0.775
					l-1.34,7.719C263.307,295.14,262.766,295.626,262.11,295.667z"/>
				<path style="fill:#E8F6F6;" d="M277.7,294.69l-9.931,0.622c-0.564,0.035-0.957-0.55-0.71-1.058l0.924-7.681l12.366-0.775
					l-1.34,7.719C278.897,294.163,278.356,294.648,277.7,294.69z"/>
				<path style="fill:#E8F6F6;" d="M293.291,293.712l-9.931,0.622c-0.564,0.035-0.957-0.55-0.71-1.058l0.924-7.681l12.366-0.775
					l-1.34,7.719C294.487,293.186,293.946,293.671,293.291,293.712z"/>
				<path style="fill:#E8F6F6;" d="M308.881,292.735l-9.931,0.622c-0.564,0.035-0.956-0.55-0.71-1.058l0.924-7.681l12.366-0.775
					l-1.34,7.719C310.077,292.209,309.536,292.694,308.881,292.735z"/>
				<path style="fill:#E8F6F6;" d="M324.471,291.758l-9.931,0.622c-0.564,0.035-0.957-0.55-0.71-1.058l0.924-7.681l12.366-0.775
					l-1.34,7.719C325.668,291.232,325.126,291.717,324.471,291.758z"/>
				<path style="fill:#E8F6F6;" d="M340.061,290.781l-9.931,0.622c-0.564,0.035-0.957-0.55-0.71-1.058l0.924-7.682l12.366-0.775
					l-1.34,7.719C341.258,290.255,340.716,290.74,340.061,290.781z"/>
				<path style="fill:#E8F6F6;" d="M172.611,330.343l-13.272,0.832c-0.564,0.035-0.957-0.55-0.71-1.058l3.152-7.821l13.48-0.845
					l-1.34,7.719C173.808,329.817,173.266,330.302,172.611,330.343z"/>
				<path style="fill:#E8F6F6;" d="M188.201,329.366l-9.931,0.622c-0.564,0.035-0.957-0.55-0.71-1.058l0.924-7.681l12.366-0.775
					l-1.34,7.719C189.398,328.84,188.856,329.325,188.201,329.366z"/>
				<path style="fill:#E8F6F6;" d="M203.791,328.389l-9.931,0.622c-0.564,0.035-0.957-0.55-0.71-1.058l0.924-7.681l12.366-0.775
					l-1.34,7.719C204.988,327.862,204.447,328.348,203.791,328.389z"/>
				<path style="fill:#E8F6F6;" d="M219.382,327.412l-9.931,0.622c-0.564,0.035-0.957-0.55-0.71-1.058l0.924-7.681l12.366-0.775
					l-1.34,7.719C220.578,326.885,220.037,327.371,219.382,327.412z"/>
				<path style="fill:#E8F6F6;" d="M234.972,326.435l-9.931,0.622c-0.564,0.035-0.957-0.55-0.71-1.058l0.924-7.681l12.366-0.775
					l-1.34,7.719C236.168,325.908,235.627,326.393,234.972,326.435z"/>
				<path style="fill:#E8F6F6;" d="M250.562,325.457l-9.931,0.622c-0.564,0.035-0.957-0.55-0.71-1.058l0.924-7.682l12.366-0.775
					l-1.34,7.719C251.759,324.931,251.217,325.416,250.562,325.457z"/>
				<path style="fill:#E8F6F6;" d="M266.152,324.48l-9.931,0.622c-0.564,0.035-0.956-0.55-0.71-1.058l0.924-7.681l12.366-0.775
					l-1.34,7.719C267.349,323.954,266.807,324.439,266.152,324.48z"/>
				<path style="fill:#E8F6F6;" d="M281.742,323.503l-9.931,0.622c-0.564,0.035-0.957-0.55-0.71-1.058l0.924-7.681l12.366-0.775
					l-1.34,7.719C282.939,322.977,282.397,323.462,281.742,323.503z"/>
				<path style="fill:#E8F6F6;" d="M297.332,322.526l-9.931,0.622c-0.564,0.035-0.957-0.55-0.71-1.058l0.924-7.681l12.366-0.775
					l-1.34,7.719C298.529,322,297.988,322.485,297.332,322.526z"/>
				<path style="fill:#E8F6F6;" d="M312.923,321.549l-9.931,0.622c-0.564,0.035-0.957-0.55-0.71-1.058l0.924-7.681l12.366-0.775
					l-1.34,7.719C314.119,321.023,313.578,321.508,312.923,321.549z"/>
				<path style="fill:#E8F6F6;" d="M328.513,320.572l-9.931,0.622c-0.564,0.035-0.957-0.55-0.71-1.058l0.924-7.681l12.366-0.775
					l-1.34,7.719C329.709,320.046,329.168,320.531,328.513,320.572z"/>
			</g>
			<polygon style="fill:#C6E9E9;" points="273.13,354.099 221.214,357.353 227.871,339.305 276.803,336.238 			"/>
		</g>
		<g>
			<path style="fill:#1A3247;" d="M101.966,281.14c0,0-3.719,2.302-5.95,2.116c-2.231-0.186-4.463,0.186-4.277,3.347
				c0.186,3.161,2.603,10.041,2.975,12.459c0.372,2.417,2.417,9.297,4.091,10.041c1.674,0.744,2.603,0.186,2.789-1.488
				c0.186-1.674-1.488-9.112-0.186-12.645c1.302-3.533,6.322-10.041,6.322-10.041S103.267,280.697,101.966,281.14z"/>
			<path style="fill:#1A3247;" d="M123.908,304.641c0,0-1.116,1.859-2.789,2.789c-1.674,0.93-7.624,5.578-6.88,8.368
				c0.744,2.789,7.81,6.508,11.529,9.855c3.719,3.347,10.413,7.996,11.529,7.252c1.116-0.744,1.488-0.744,0.186-2.975
				c-1.302-2.231-10.041-14.876-10.041-18.223s2.045-6.322,2.045-6.322L123.908,304.641z"/>
			<path style="fill:#315E5E;" d="M123.722,250.529c0,0-13.946,12.459-21.57,29.38l-0.744,1.859c0,0,4.649,4.463,5.95,4.649
				c0,0,23.988-15.992,27.706-22.314l-1.302-7.624L123.722,250.529z"/>
			<path style="fill:#417D7D;" d="M107.358,205.715c0,0-4.463,17.665,0.558,27.335s21.57,23.616,22.314,25.289
				c0.744,1.673,0.558,3.905-1.488,8.554c-2.046,4.649-6.136,35.702-5.95,37.376c0,0,1.116,3.161,8.74,2.417
				c0,0,14.996-33.448,16.549-40.351c1.674-7.438,0-10.227,0-10.227s8.74-7.252,5.95-15.806
				c-2.789-8.554-21.756-34.029-23.616-35.516s-2.975-2.417-2.975-3.905s-4.091-0.744-4.091-0.744L107.358,205.715z"/>
			<path style="opacity:0.23;fill:#1A1A1A;" d="M148.081,256.108c0,0-15.62-29.194-16.549-30.682
				c-0.93-1.488,0.93-2.046,1.674-1.859c0.744,0.186,15.62,31.426,15.62,31.426L148.081,256.108z"/>
			<path style="fill:#FFFFFF;" d="M127.068,306.509l-2.975-0.391c1.516-11.56,8.594-39.118,10.546-43.218
				c1.466-3.077,0.617-4.744,0.254-5.455l-0.02-0.041c-0.919-1.298-12.71-14.837-20.074-22.976
				c-7.42-8.201-5.667-29.253-5.588-30.146l2.988,0.262c-0.018,0.205-1.719,20.638,4.825,27.871
				c5.333,5.894,19.935,22.454,20.498,23.579c0.511,1.003,1.927,3.784-0.173,8.195C135.691,267.672,128.607,294.78,127.068,306.509z
				"/>
			<path style="fill:#FFB07B;" d="M101.594,161.087c0,0,0.744-2.046,0.372-4.277c-0.372-2.231-1.302-5.393-1.302-5.393h8.74
				c0,0,0.504,1.589,1.211,3.405c0.841,2.161,1.971,4.644,2.88,5.149c1.674,0.93,1.488,2.231,1.488,2.231l-2.603,3.347l-6.136,0.372
				L101.594,161.087z"/>
			<path style="opacity:0.18;fill:#1A1A1A;" d="M110.614,154.823c-0.707-1.816-1.211-3.405-1.211-3.405h-8.74
				c0,0,0.93,3.161,1.302,5.393c0,0,4.201,1.343,8.076-1.282L110.614,154.823z"/>
			<path style="fill:#FFFFFF;" d="M106.8,208.133c0,0-5.579-0.558-9.298-7.252c-3.719-6.694-4.649-14.504-5.393-16.549
				c-0.744-2.046-2.046-6.508-2.046-6.508l11.529-16.735l0.372-0.93c0,0,3.905,4.463,7.624,3.161
				c3.719-1.302,3.719-2.417,2.603-4.835c0,0,1.488-1.674,9.298-0.558c7.81,1.116,18.595,4.091,18.967,4.649
				c0.372,0.558-3.533,12.831-3.533,12.831l-7.996,4.091c0,0,2.417,10.413,1.488,15.806c-0.93,5.393-2.975,5.579-2.975,5.579
				s-6.508,3.533-11.157,4.835C111.635,207.017,106.8,208.133,106.8,208.133z"/>
			<path style="opacity:0.05;fill:#1A1A1A;" d="M136.924,175.406l-7.996,4.091c0,0,2.417,10.413,1.488,15.806
				c0,0-21.999,1.102-34.749-8.648l-3.556-2.323c-0.744-2.046-2.046-6.508-2.046-6.508l11.529-16.735l0.372-0.93
				c0,0,3.905,4.463,7.624,3.161c0,0,12.827,6.835,21.827,4.335L136.924,175.406"/>
			<path style="fill:#FFFFFF;" d="M150.498,177.265c0,0,7.066,1.302,9.669,4.277c2.603,2.975-0.558,9.669-0.558,9.669l-6.136-2.417
				l-2.975-5.95V177.265z"/>
			<path style="fill:#C6674E;" d="M98.618,151.604c0,0-5.393,3.533-17.107-1.488c-11.715-5.021-20.826-19.525-15.248-29.194
				s10.413-0.558,15.992-1.674s4.463-7.996,12.831-7.066c8.368,0.93,11.715,8.182,12.273,9.298
				C107.916,122.596,98.618,151.604,98.618,151.604z"/>
			<path style="fill:#954D3B;" d="M91.492,140.412c0,0-1.952-3.128-0.005-5.725c0,0-5.958-5.154-7.655,1.633
				c-1.167,4.667,2.118,17.038,16.833,14.333L91.492,140.412z"/>
			<path style="fill:#FFB07B;" d="M93.133,142.585c0,0-0.837,1.023-3.254,0.465c-2.417-0.558-3.626-1.859-3.254-3.533
				c0.372-1.673,1.766-1.952,2.882-2.045c2.971-0.248,5.392-2.417,5.392-2.417l-1.674-7.996l10.413,0.93l10.599,6.322
				c0,0,1.302,10.971,0,14.318c-1.302,3.347-3.374,3.943-5.764,4.463c-2.138,0.465-7.81,1.488-12.087-3.347
				C92.11,144.91,93.133,142.585,93.133,142.585z"/>
			<path style="fill:#BF845C;" d="M106.289,141.888l0.558,3.486c0,0,1.395,0.837,2.441-0.279l-0.628-4.254
				c0,0-0.209-0.907-1.046-0.837C106.777,140.075,106.08,140.145,106.289,141.888z"/>
			<path style="fill:#C6674E;" d="M89.507,137.472c0,0,0.325,0.79,2.975,1.766c2.65,0.976,4.463,0.558,4.602-0.976
				c0.14-1.534,0-6.136-0.418-6.834c0,0,7.113,5.578,15.341,4.323c8.228-1.255,9.344-4.602,8.786-6.555
				c-0.558-1.953-2.51-3.905-5.857-3.766c-3.347,0.139-7.066-2.045-7.577-3.951c-0.511-1.906-6.369-3.58-6.369-3.58l-12.133,8.786
				L89.507,137.472z"/>
			<polygon style="fill:#FFC194;" points="125.767,151.976 127.627,127.523 131.811,126.408 145.199,146.49 145.478,150.953 
				137.668,155.416 129.021,155.137 			"/>
			<polygon style="fill:#FFC533;" points="185.131,296.429 179.508,301.437 176.105,302.342 173.231,303.107 165.721,301.592 
				125.86,151.72 133.312,152.488 135.991,151.776 139.434,150.86 145.27,146.557 149.058,160.8 151.538,170.124 152.753,174.692 
				156.119,187.347 157.586,192.862 160.7,204.572 			"/>
			<polygon style="fill:#1A3247;" points="139.434,150.86 135.991,151.776 133.312,152.488 173.231,303.107 176.105,302.342 
				179.508,301.437 			"/>
			<path style="opacity:0.23;fill:#1A1A1A;" d="M156.119,187.347l1.467,5.515l3.114,11.709c0,0-4.283,7.332-8.033,5.082
				s-1.25-10.75-0.5-12.75S156.119,187.347,156.119,187.347z"/>
			<path style="opacity:0.23;fill:#1A1A1A;" d="M149.058,160.8l2.48,9.324l1.215,4.568c0,0-12.086,8.461-19.086,6.461c-7-2,0,0,0,0
				l-3.5-14.25c0,0,11-3.5,13-7.5s3.5-7,3.5-7L149.058,160.8z"/>
			<path style="fill:#C6674E;" d="M165.839,302.653c0,0,1.011,12.97,13.737,9.274c12.726-3.696,5.555-15.498,5.555-15.498
				l-5.624,5.008l-6.277,1.669L165.839,302.653z"/>
			<path style="fill:#1A3247;" d="M127.417,128.081c0,0-0.697-7.252,0.418-7.88s4.323,6.485,4.323,6.485
				S130.416,128.918,127.417,128.081z"/>
			<path style="fill:#FFB07B;" d="M142.967,165.457c0,0,3.905-4.044,3.626-5.857c-0.279-1.813-1.813-3.905-0.558-4.184
				c1.255-0.279,2.51,3.208,2.51,3.208l-0.418-1.952c0,0,2.929,0.697,4.044,2.371c1.116,1.674,3.068,5.16,1.674,7.113
				s-5.579,3.068-6.694,3.208c-1.116,0.139-2.092,0.418-2.092,0.418L142.967,165.457z"/>
			<path style="fill:#FFFFFF;" d="M101.547,163.086c0,0-2.371-2.65-6.694-1.674c-4.323,0.976-10.041,8.089-7.81,14.086
				s12.691,9.623,17.572,10.599c4.881,0.976,14.923,2.371,18.827,1.813c3.905-0.558,20.361-13.109,23.709-18.548
				c0,0-2.092-4.602-5.16-5.299c0,0-1.395-0.418-2.51,0.418c-1.116,0.837-8.647,5.578-12.133,6.136
				c-3.486,0.558-5.021,0.697-5.021,0.697S103.918,163.644,101.547,163.086z"/>
			<path style="fill:#417D7D;" d="M121.154,182.417c-12.368,0-30.97-9.784-31.791-10.219c-0.488-0.258-0.674-0.864-0.415-1.352
				c0.258-0.488,0.861-0.676,1.352-0.415c0.205,0.109,20.659,10.864,32.365,9.928c11.52-0.927,20.791-13.682,20.884-13.811
				c0.322-0.449,0.946-0.552,1.395-0.23c0.449,0.321,0.552,0.946,0.231,1.395c-0.398,0.557-9.896,13.638-22.35,14.64
				C122.283,182.396,121.725,182.417,121.154,182.417z"/>
			<path style="fill:#FFB07B;" d="M154.961,185.819c0,0-2.092-1.116-4.044,0.418c-1.952,1.534-2.65,5.439-3.905,6.973
				c-1.255,1.534-2.65,2.65-1.395,3.208c1.255,0.558,1.813-0.558,2.65-1.534c0.837-0.976,2.371-2.51,2.929-2.51
				c0.558,0-1.255,6.415-0.976,8.228c0.279,1.813-0.558,4.184,0.558,4.742c1.116,0.558,2.929,1.255,3.905,0.558
				c0.976-0.697,2.51-4.881,3.208-6.694c0.697-1.813,2.231-8.089,1.395-9.762C158.448,187.771,156.216,186.237,154.961,185.819z"/>
			<polygon style="fill:#1A3247;" points="173.545,304.919 166.153,303.42 165.247,299.899 172.778,301.328 179.053,299.759 
				184.771,295.052 185.713,298.435 180.239,303.141 			"/>
		</g>
		<g>
			<path style="fill:#56A7A7;" d="M354.723,75.371c0,0-6.88,1.923-13.725-0.988c-9.583-4.076-12.627-10.221-12.627-10.221
				s-0.277-7.899,16.885,0.209L354.723,75.371z"/>
			<path style="fill:#A0DBDB;" d="M356.452,71.306c-0.538,1.265-3.258,2.454-6.432,2.772c-2.026,0.203-4.237,0.05-6.185-0.663
				l0.964-2.266c-5.481-2.332-9.15-6.041-8.196-8.286c0.955-2.245,6.172-2.174,11.654,0.157
				C353.738,65.351,357.407,69.061,356.452,71.306z"/>
			<path style="fill:#56A7A7;" d="M356.452,71.306c-0.538,1.265-3.258,2.454-6.432,2.772c-2.026,0.203-4.237,0.05-6.185-0.663
				l-1.938,4.556l7.826,1.435l4.414-2.656L356.452,71.306z"/>
			<path style="fill:#C6E9E9;" d="M343.835,73.415l-1.938,4.556l-9.324-5.633l4.03-9.475c-0.955,2.245,2.715,5.955,8.196,8.286
				L343.835,73.415"/>
			<path style="fill:#FFFFFF;" d="M304.829,192.667c0,0-5.719,2.418-14.923-1.498c-6.673-2.839-11.429-9.712-11.429-9.712
				l27.092-57.989l22.802-59.307c0,0,3.044,6.145,12.627,10.221c6.844,2.911,13.725,0.988,13.725,0.988l-27.2,58.244
				L304.829,192.667z"/>
			
				<rect x="302.607" y="121.105" transform="matrix(0.9202 0.3914 -0.3914 0.9202 75.2241 -113.7977)" style="fill:#FFC533;" width="28.264" height="13.016"/>
			<polygon style="fill:#954D3B;" points="312.659,130.93 296.733,164.57 307.122,160.098 309.737,170.102 321.215,134.569 			"/>
			<path style="fill:#C6674E;" d="M327.617,132.443c-2.251,5.292-8.366,7.758-13.658,5.506c-5.292-2.251-7.758-8.366-5.506-13.658
				c2.251-5.292,8.366-7.757,13.658-5.506C327.403,121.036,329.868,127.151,327.617,132.443z"/>
			<path style="fill:#954D3B;" d="M323.12,130.53c-1.194,2.808-4.439,4.116-7.247,2.922c-2.808-1.195-4.116-4.439-2.922-7.248
				c1.195-2.808,4.439-4.116,7.248-2.922C323.006,124.477,324.314,127.722,323.12,130.53z"/>
		</g>
		<g>
			<path style="fill:#FFC533;" d="M433.902,364.288l-56.063,25.381c-7.628,3.453-16.61,0.069-20.063-7.558l-39.419-87.072
				c-1.348-2.977-0.027-6.482,2.95-7.829l64.485-29.193c2.977-1.348,6.482-0.027,7.829,2.95l43.232,95.494
				C438.199,359.435,436.879,362.94,433.902,364.288z"/>
			<path style="fill:#FFFFFF;" d="M429.293,362.238l-48.979,22.174c-8.51,3.853-17.515-0.383-21.368-8.893l-35.305-77.985
				c-1.503-3.321-0.03-7.232,3.291-8.735l57.358-25.967c3.321-1.503,7.232-0.03,8.735,3.291l39.559,87.381
				C434.087,356.824,432.614,360.734,429.293,362.238z"/>
			<path style="fill:#FFC533;" d="M422.741,355.868l-49.964,22.62c-7.628,3.453-16.61,0.069-20.063-7.558l-35.278-77.924
				c-1.348-2.977-0.027-6.482,2.949-7.829l58.386-26.432c2.977-1.348,6.482-0.027,7.829,2.949l39.09,86.346
				C427.039,351.015,425.718,354.52,422.741,355.868z"/>
			<path style="fill:#FCEA90;" d="M411.645,349.413l-36.397,16.478c-7.628,3.453-16.61,0.069-20.063-7.558l-26.652-58.872
				c-1.348-2.977-0.027-6.482,2.95-7.829l44.818-20.29c2.977-1.348,6.482-0.027,7.829,2.949l30.465,67.293
				C415.942,344.56,414.622,348.065,411.645,349.413z"/>
			<path style="fill:none;stroke:#333333;stroke-width:0.5;stroke-linecap:round;stroke-linejoin:round;stroke-miterlimit:10;" d="
				M375.833,374.655"/>
			<path style="fill:none;stroke:#333333;stroke-width:0.5;stroke-linecap:round;stroke-linejoin:round;stroke-miterlimit:10;" d="
				M367.171,384.272"/>
			<path style="fill:#FFC533;" d="M369.945,385.32c-4.457-1.052-3.632-3.906-1.206-5.005l8.013-3.628l-2.902-6.411l-21.86-0.945
				l7.873,14.008l8.811,2.556L369.945,385.32z"/>
			<g>
				<path style="fill:#1A3247;" d="M418.063,359.446l-4.276,1.936c-0.503,0.228-1.096,0.005-1.323-0.499l-44.444-98.171
					c-0.228-0.503-0.005-1.096,0.499-1.323l4.276-1.936c0.503-0.228,1.096-0.005,1.323,0.499l44.444,98.171
					C418.789,358.626,418.566,359.218,418.063,359.446z"/>
				<path style="fill:#1A3247;" d="M412.415,360.778l7.914,9.886c0.319,0.398,0.867,0.529,1.331,0.319l3.659-1.657
					c0.651-0.295,0.861-1.116,0.431-1.687l-7.238-9.622L412.415,360.778z"/>
			</g>
		</g>
		<g>
			<path style="fill:#C6674E;" d="M413.871,191.563c-3.308,11.725-10.759,20.434-22.203,21.504c-3.412,0.319-6.179-2.67-9.674-3.656
				c-3.5-0.988-7.425,0.112-10.17-1.948c-9.19-6.895-10.985-18.209-7.679-29.929c3.357-11.898,11.489-18.176,22.149-18.298
				c2.977-0.034,5.362,3.21,8.685,4.148c2.902,0.819,6.301-0.901,8.595,0.416C413.309,169.387,417.346,179.244,413.871,191.563z"/>
			<path style="fill:#954D3B;" d="M401.309,170.464c-0.505,1.789-4.367,2.265-8.627,1.063c-4.26-1.202-7.304-3.626-6.8-5.415
				c0.505-1.789,4.367-2.265,8.627-1.063C398.769,166.251,401.814,168.676,401.309,170.464z"/>
			<path style="opacity:0.15;fill:#FFFFFF;" d="M375.404,186.548c-0.27,5.493-2.315,9.857-4.569,9.746
				c-2.253-0.111-3.862-4.654-3.592-10.147c0.27-5.493,2.315-9.857,4.569-9.746C374.065,176.512,375.674,181.054,375.404,186.548z"
				/>
			<path style="fill:#56A7A7;" d="M414.484,161.918c0,0-4.125,4.77-9.05,4.636s-8.785-5.12-8.785-5.12s4.125-4.77,9.05-4.636
				C410.624,156.932,414.484,161.918,414.484,161.918z"/>
			<path style="fill:#1A3247;" d="M393.214,169.635c-0.695-0.196-1.133-0.895-0.993-1.616c0.11-0.561,1.704-14.413,10.022-18.059
				c0.709-0.311,2.311-0.057,2.62,0.65c0.311,0.708,0.298,2.242-0.41,2.553c-6.973,3.057-9.458,15.273-9.482,15.396
				c-0.15,0.759-0.886,1.253-1.644,1.104C393.288,169.655,393.251,169.646,393.214,169.635z"/>
		</g>
		<g>
			<g>
				<g>
					<path style="fill:#56A7A7;" d="M196.717,415.704c-6.321,2.158-17.706-7.78-26.559-23.429
						c-4.366-7.716-7.388-15.594-8.51-22.181c-1.158-6.798-0.138-11.48,2.871-13.182c6.087-3.454,18.143,6.669,27.409,23.046
						c4.366,7.716,7.388,15.594,8.51,22.181c1.158,6.798,0.138,11.48-2.871,13.182C197.295,415.476,197.011,415.603,196.717,415.704
						z M165.786,357.717c-0.225,0.077-0.441,0.174-0.647,0.29c-2.477,1.401-3.297,5.73-2.25,11.876
						c1.098,6.447,4.069,14.18,8.365,21.773c8.621,15.236,20.388,25.557,25.693,22.571c2.477-1.401,3.297-5.73,2.25-11.876
						c-1.098-6.447-4.069-14.18-8.365-21.773C182.546,365.934,171.355,355.816,165.786,357.717z"/>
					<path style="fill:#56A7A7;" d="M195.773,416.536c-6.833,0.932-17.557-8.805-26.135-23.967
						c-4.398-7.773-7.445-15.719-8.578-22.375c-1.203-7.065-0.079-11.967,3.165-13.801c1.488-0.847,3.301-0.981,5.391-0.402
						c6.797,1.88,15.758,11.172,22.832,23.674c4.398,7.774,7.445,15.72,8.579,22.374c1.203,7.065,0.079,11.967-3.166,13.802
						c-0.3,0.171-0.62,0.315-0.951,0.428l0,0C196.544,416.393,196.165,416.482,195.773,416.536z M166.463,356.884
						c-0.6,0.082-1.151,0.264-1.65,0.547c-2.775,1.57-3.691,6.031-2.578,12.564c1.112,6.523,4.109,14.331,8.442,21.988
						c8.504,15.03,19.863,25.192,25.847,23.158c0.26-0.089,0.511-0.203,0.748-0.337c2.776-1.57,3.691-6.031,2.579-12.564
						c-1.111-6.521-4.109-14.329-8.442-21.987c-6.925-12.239-15.604-21.312-22.111-23.112
						C168.26,356.853,167.312,356.768,166.463,356.884z M195.611,415.283c-6.119,0.835-16.732-8.94-24.876-23.334
						c-4.328-7.649-7.324-15.451-8.433-21.967c-1.092-6.409-0.164-10.962,2.544-12.495c0.242-0.136,0.493-0.248,0.748-0.335l0,0
						c5.959-2.036,17.269,8.128,25.758,23.132c4.329,7.65,7.324,15.452,8.433,21.967c1.092,6.409,0.164,10.962-2.544,12.495
						C196.743,415.026,196.197,415.203,195.611,415.283z M166.674,358.118c-0.242,0.033-0.474,0.087-0.696,0.163l0,0
						c-0.187,0.064-0.371,0.147-0.548,0.246c-2.21,1.251-2.941,5.459-1.954,11.256c1.087,6.383,4.034,14.046,8.296,21.579
						c8.31,14.688,19.94,25.124,24.881,22.345c2.211-1.251,2.942-5.459,1.955-11.256c-1.088-6.381-4.034-14.045-8.296-21.58
						C182.706,367.427,172.163,357.37,166.674,358.118z"/>
				</g>
				<g>
					<path style="fill:#56A7A7;" d="M173.151,403.406c-10.475,3.577-18.884,3.529-21.314-0.766
						c-1.703-3.009-0.166-7.547,4.328-12.778c4.354-5.069,11.002-10.265,18.719-14.63c16.375-9.266,31.91-11.744,35.364-5.64
						c3.453,6.104-6.67,18.143-23.047,27.408C182.346,399.748,177.565,401.899,173.151,403.406z M175.504,376.328
						c-7.593,4.296-14.122,9.394-18.383,14.355c-4.063,4.729-5.589,8.861-4.187,11.339c3.002,5.305,18.41,2.504,33.648-6.115
						c15.237-8.621,25.573-20.387,22.571-25.694C206.15,364.907,190.74,367.708,175.504,376.328L175.504,376.328z M175.194,375.78
						l0.008-0.003L175.194,375.78z"/>
					<path style="fill:#56A7A7;" d="M163.875,406.321c-6.32,0.862-10.8-0.281-12.558-3.386c-1.836-3.245-0.275-8.026,4.395-13.461
						c4.399-5.121,11.103-10.363,18.877-14.761c7.98-4.515,16.052-7.589,22.727-8.653c6.858-1.093,11.648,0.054,13.45,3.24
						c1.802,3.184,0.328,7.87-4.15,13.196c-4.351,5.173-11.142,10.51-19.123,15.024c-4.79,2.711-9.551,4.88-14.151,6.45
						C169.875,405.155,166.692,405.937,163.875,406.321z M175.19,375.745c-0.004,0.001-0.008,0.004-0.012,0.006
						c-7.657,4.332-14.248,9.482-18.56,14.5c-4.318,5.025-5.831,9.321-4.261,12.096c2.202,3.89,10.096,4.08,20.602,0.494l0,0
						c4.53-1.546,9.223-3.685,13.949-6.359c7.86-4.446,14.536-9.686,18.797-14.755c4.134-4.916,5.563-9.121,4.024-11.84
						c-1.538-2.72-5.88-3.656-12.223-2.649c-6.534,1.042-14.457,4.062-22.312,8.504l0.017,0.066l0,0l0,0
						c15.786-8.933,31.245-11.574,34.461-5.891c3.215,5.685-7.011,17.576-22.797,26.507c-15.786,8.929-31.245,11.572-34.46,5.89
						c-1.533-2.709,0.018-7.091,4.254-12.022c4.305-5.011,10.888-10.154,18.538-14.482L175.19,375.745z M198.731,368.366
						c-6.313,0.861-14.724,3.836-22.934,8.481c-7.534,4.264-14.007,9.315-18.225,14.224c-3.832,4.461-5.372,8.444-4.12,10.657
						c2.792,4.934,18.137,1.972,32.835-6.34c14.697-8.316,25.139-19.943,22.345-24.882
						C207.399,368.327,203.72,367.686,198.731,368.366z"/>
				</g>
				<g>
					<path style="fill:#56A7A7;" d="M175.442,418.281c-1.167,0.398-2.297,0.468-3.367,0.171c-3.332-0.924-5.454-5.22-5.976-12.097
						c-0.505-6.663,0.522-15.037,2.891-23.581l0,0c2.369-8.543,5.802-16.251,9.667-21.702c3.989-5.626,8.019-8.216,11.352-7.292
						c3.332,0.924,5.454,5.22,5.976,12.097c0.505,6.663-0.522,15.037-2.891,23.581C188.862,404.723,181.65,416.162,175.442,418.281z
						 M187.048,355.147c-2.253,0.769-4.816,3.062-7.363,6.653c-3.782,5.336-7.149,12.904-9.48,21.31l0,0
						c-2.332,8.407-3.343,16.629-2.848,23.15c0.471,6.217,2.314,10.218,5.056,10.978c5.875,1.629,14.79-11.246,19.469-28.116
						c2.331-8.407,3.343-16.629,2.848-23.15c-0.471-6.217-2.314-10.218-5.056-10.978
						C188.868,354.771,187.985,354.828,187.048,355.147z M169.598,382.943l0.008-0.003L169.598,382.943z"/>
					<path style="fill:#56A7A7;" d="M174.27,419.174c-0.813,0.111-1.6,0.063-2.354-0.147c-3.592-0.996-5.869-5.48-6.411-12.627
						c-0.51-6.73,0.524-15.177,2.911-23.785c2.387-8.61,5.852-16.383,9.755-21.888c4.145-5.845,8.406-8.52,11.998-7.521
						c3.592,0.996,5.869,5.48,6.411,12.627c0.51,6.729-0.523,15.177-2.91,23.785c-4.227,15.242-11.474,26.988-18.034,29.228
						C175.173,419.004,174.718,419.113,174.27,419.174z M169.58,382.883c-0.005,0.017-0.01,0.034-0.015,0.052
						c-2.351,8.478-3.37,16.779-2.871,23.376c0.501,6.608,2.469,10.715,5.54,11.568c0.932,0.257,1.946,0.205,3.014-0.161l0,0
						c6.107-2.085,13.208-13.771,17.27-28.418c2.351-8.478,3.37-16.78,2.87-23.376c-0.501-6.608-2.468-10.715-5.54-11.568
						c-3.071-0.85-6.873,1.656-10.706,7.063c-3.816,5.382-7.211,13.001-9.562,21.456l0.039,0.108
						c0.003-0.01,0.006-0.021,0.008-0.031c2.349-8.47,5.747-16.104,9.569-21.496c2.607-3.676,5.255-6.052,7.657-6.871l0,0
						c1.06-0.363,2.061-0.418,2.977-0.164c2.999,0.832,5,5.026,5.492,11.508c0.5,6.59-0.519,14.884-2.868,23.355
						c-4.848,17.478-13.911,30.276-20.203,28.531c-2.998-0.831-5-5.026-5.491-11.508c-0.499-6.58,0.516-14.859,2.858-23.317
						L169.58,382.883z M188.148,355.492c-0.293,0.04-0.596,0.113-0.907,0.22l0,0c-2.133,0.728-4.644,3.012-7.07,6.433
						c-3.744,5.283-7.08,12.785-9.392,21.125c-2.313,8.341-3.318,16.49-2.828,22.946c0.444,5.864,2.172,9.77,4.621,10.449
						c0.454,0.125,0.932,0.151,1.428,0.084c5.466-0.743,13.169-12.866,17.306-27.785c2.313-8.341,3.318-16.49,2.828-22.946
						c-0.445-5.864-2.172-9.77-4.621-10.449C189.09,355.452,188.633,355.426,188.148,355.492z"/>
				</g>
				<g>
					<path style="fill:#56A7A7;" d="M207.834,399.836c-1.801,0.615-3.998,1.029-6.552,1.223c-6.663,0.505-15.038-0.521-23.581-2.891
						c-8.543-2.369-16.251-5.802-21.702-9.667c-5.626-3.988-8.215-8.019-7.292-11.351c0.924-3.332,5.221-5.454,12.096-5.977
						c6.663-0.505,15.038,0.521,23.581,2.891c8.544,2.369,16.251,5.802,21.702,9.667c5.626,3.988,8.215,8.019,7.291,11.351
						C212.798,397.178,210.884,398.795,207.834,399.836z M154.666,373.589c-2.625,0.896-4.284,2.231-4.746,3.897
						c-0.76,2.742,1.72,6.383,6.807,9.989c5.335,3.782,12.903,7.149,21.31,9.48l0,0c8.407,2.332,16.628,3.344,23.15,2.849
						c6.217-0.471,10.218-2.316,10.978-5.057c0.76-2.742-1.721-6.383-6.807-9.989c-5.335-3.782-12.903-7.149-21.31-9.48
						c-8.407-2.332-16.628-3.344-23.15-2.849C158.46,372.615,156.361,373.011,154.666,373.589z"/>
					<path style="fill:#56A7A7;" d="M203.48,401.428c-0.689,0.094-1.407,0.169-2.153,0.226c-6.73,0.511-15.177-0.524-23.786-2.912
						c-8.61-2.387-16.382-5.851-21.887-9.754c-5.846-4.145-8.517-8.405-7.521-11.997c0.996-3.592,5.481-5.875,12.626-6.412
						c6.732-0.51,15.18,0.524,23.786,2.912c8.61,2.387,16.383,5.851,21.888,9.755c5.846,4.144,8.517,8.404,7.521,11.996
						c-0.628,2.265-2.677,4.049-5.927,5.159l0,0C206.702,400.853,205.178,401.197,203.48,401.428z M158.74,371.99
						c-5.371,0.732-8.701,2.591-9.458,5.321c-0.852,3.071,1.656,6.872,7.062,10.705c5.395,3.826,13.036,7.227,21.516,9.579
						c8.479,2.351,16.781,3.371,23.377,2.872c2.484-0.19,4.638-0.592,6.404-1.193l0,0c2.86-0.977,4.645-2.48,5.163-4.349
						c0.852-3.071-1.656-6.872-7.061-10.704c-5.396-3.826-13.037-7.228-21.517-9.579c-8.476-2.351-16.778-3.371-23.376-2.872
						C160.114,371.825,159.411,371.898,158.74,371.99z M203.266,400.185c-0.65,0.089-1.328,0.16-2.034,0.213
						c-6.589,0.5-14.883-0.518-23.354-2.869c-8.471-2.348-16.105-5.746-21.495-9.567c-5.303-3.759-7.868-7.635-7.036-10.635
						c0.511-1.843,2.284-3.331,5.128-4.302c1.762-0.603,3.909-1.002,6.38-1.19c6.586-0.5,14.88,0.519,23.354,2.869
						c8.47,2.348,16.104,5.746,21.496,9.568c5.303,3.759,7.868,7.635,7.036,10.634C211.999,397.579,208.587,399.459,203.266,400.185
						z M158.939,373.235c-1.536,0.21-2.902,0.517-4.08,0.919l0,0c-2.454,0.837-3.963,2.045-4.364,3.492
						c-0.679,2.45,1.779,5.942,6.576,9.343c5.281,3.743,12.783,7.078,21.124,9.391c8.342,2.315,16.49,3.319,22.946,2.83
						c5.862-0.448,9.769-2.172,10.448-4.622c0.679-2.449-1.779-5.941-6.577-9.342c-5.281-3.744-12.784-7.08-21.124-9.391
						c-8.344-2.315-16.493-3.319-22.946-2.83C160.247,373.077,159.578,373.148,158.939,373.235z"/>
				</g>
			</g>
			<path style="fill:#22425E;" d="M183.765,384.576c-0.851-1.503-2.759-2.033-4.263-1.182c-1.503,0.851-2.033,2.759-1.182,4.263
				c0.851,1.503,2.759,2.033,4.263,1.182C184.086,387.988,184.616,386.08,183.765,384.576z"/>
		</g>
		<g>
			<g>
				<path style="fill:#C6E9E9;" d="M151.95,103.126l-1.108-3.229l-3.153,1.081l-1.009-2.943l3.153-1.081l-1.114-3.248l2.79-0.957
					l1.114,3.248l3.153-1.081l1.01,2.942l-3.153,1.081l1.108,3.229L151.95,103.126z"/>
			</g>
			<g>
				<path style="fill:#C6E9E9;" d="M418.205,220.173l1.356-3.133l-3.058-1.324l1.236-2.855l3.058,1.325l1.364-3.151l2.706,1.172
					l-1.364,3.151l3.058,1.324l-1.236,2.855l-3.059-1.325l-1.356,3.133L418.205,220.173z"/>
			</g>
			<g>
				<path style="fill:#C6E9E9;" d="M110.167,349.787l1.356-3.133l-3.058-1.324l1.236-2.855l3.058,1.324l1.364-3.151l2.706,1.172
					l-1.364,3.151l3.058,1.324l-1.236,2.855l-3.059-1.324l-1.356,3.133L110.167,349.787z"/>
			</g>
			<g>
				<path style="fill:#FFFFFF;" d="M290.462,400.739l3.138-7.256l-7.084-3.064l2.86-6.613l7.084,3.064l3.156-7.299l6.269,2.711
					l-3.156,7.299l7.084,3.064l-2.859,6.613l-7.085-3.064l-3.138,7.257L290.462,400.739z"/>
			</g>
			<g>
				<path style="fill:#FFFFFF;" d="M227.128,191.236l-3.807-4.615l-4.507,3.717l-3.469-4.206l4.507-3.717l-3.83-4.643l3.987-3.289
					l3.83,4.643l4.507-3.717l3.47,4.206l-4.507,3.717l3.807,4.616L227.128,191.236z"/>
			</g>
			<g>
				<path style="fill:#FFFFFF;" d="M355.425,311.297l-0.727-4.389l-4.285,0.709l-0.662-4l4.285-0.709l-0.731-4.415l3.792-0.628
					l0.731,4.415l4.285-0.709l0.662,3.999l-4.286,0.709l0.727,4.389L355.425,311.297z"/>
			</g>
		</g>
		<g>
			<path style="fill:#56A7A7;" d="M223.819,89.69l2.459,7.4l6.086-2.854l2.945,6.281l-6.865,3.219l2.477,7.688l-6.622,3.105
				l-2.477-7.688l-5.989,2.808l2.477,7.688l-6.622,3.105l-2.476-7.688l-6.136,2.877l-2.946-6.281l6.915-3.242l-2.46-7.4
				l-6.135,2.876l-2.945-6.28l6.914-3.242l-2.477-7.688l6.623-3.105l2.476,7.689l5.989-2.808l-2.477-7.688l6.622-3.105l2.477,7.688
				l6.135-2.876l2.944,6.281L223.819,89.69z M217.196,92.795l-5.989,2.808l2.461,7.399l5.988-2.807L217.196,92.795z"/>
		</g>
	</g>
</g>
<g id="DESIGNED_BY_FREEPIK">
	<g>
		<g id="XMLID_319_">
			<g id="XMLID_338_">
				<path id="XMLID_346_" style="fill:#A5B7C6;" d="M260.104,465.465c-0.433,0.443-0.804,0.932-1.108,1.453l-0.465-0.241
					c-0.067-0.297-0.35-0.502-0.659-0.466c-0.331,0.039-0.567,0.339-0.529,0.67c0.039,0.331,0.339,0.567,0.67,0.528
					c0.065-0.007,0.127-0.025,0.184-0.052l0.451,0.234c-0.251,0.554-0.433,1.139-0.539,1.743l0.747,0.132
					c0.229-1.306,0.85-2.507,1.792-3.473L260.104,465.465z"/>
				<path id="XMLID_345_" style="fill:#A5B7C6;" d="M265.592,463.163c-0.171,0-0.341,0.006-0.509,0.017l-0.074-0.626
					c0.188-0.149,0.296-0.389,0.266-0.645c-0.046-0.393-0.402-0.674-0.795-0.628c-0.393,0.046-0.675,0.402-0.628,0.796
					c0.03,0.254,0.19,0.461,0.404,0.563l0.073,0.624c-0.714,0.116-1.402,0.332-2.06,0.645l0.327,0.685
					c0.935-0.447,1.941-0.674,2.995-0.674c0.497,0,0.993,0.053,1.476,0.158l0.16-0.741
					C266.692,463.222,266.143,463.163,265.592,463.163z"/>
				<path id="XMLID_344_" style="fill:#A5B7C6;" d="M272.194,465.71c0.331-0.04,0.566-0.341,0.525-0.672
					c-0.04-0.331-0.341-0.566-0.672-0.525c-0.31,0.038-0.535,0.304-0.53,0.608l-0.416,0.363c-0.418-0.43-0.89-0.813-1.407-1.14
					l-0.404,0.642c1.135,0.715,2.021,1.727,2.564,2.925l0.69-0.313c-0.251-0.554-0.567-1.071-0.942-1.545l0.402-0.351
					C272.065,465.715,272.129,465.719,272.194,465.71z"/>
				<path id="XMLID_343_" style="fill:#A5B7C6;" d="M265.045,473.371c-0.386,0.023-0.775,0.035-1.157,0.035
					c-0.88,0-1.733-0.061-2.479-0.18c-0.391-0.061-0.846-0.154-1.27-0.292c1.047,1.861,3.069,3.125,5.389,3.125
					c2.855,0,5.263-1.916,5.949-4.503c-0.682,0.449-1.505,0.825-2.458,1.122C267.839,473.047,266.464,473.286,265.045,473.371z"/>
				<path id="XMLID_339_" style="fill:#A5B7C6;" d="M265.592,464.68c-3.352,0-6.079,2.666-6.079,5.943
					c0,0.425,0.046,0.849,0.137,1.261c0.674,0.483,2.706,0.891,5.348,0.731c2.88-0.174,5.297-0.958,6.672-2.159
					c-0.005-0.194-0.021-0.39-0.045-0.581C271.244,466.913,268.65,464.68,265.592,464.68z M263.433,471.194
					c-1.02,0-1.85-0.83-1.85-1.85c0-1.021,0.83-1.85,1.85-1.85c1.02,0,1.85,0.83,1.85,1.85
					C265.282,470.364,264.452,471.194,263.433,471.194z M268.17,470.286c-0.75,0-1.36-0.61-1.36-1.36s0.61-1.36,1.36-1.36
					s1.36,0.61,1.36,1.36S268.92,470.286,268.17,470.286z"/>
			</g>
			<path id="XMLID_336_" style="fill:#A5B7C6;" d="M281.596,466.547c-0.295-0.116-0.806-0.31-1.383-0.238
				c-0.551,0.069-0.844,0.341-0.844,1.007v0.866h2.228v1.717h-2.228v5.455h-1.932v-5.455h-1.339v-1.717h1.339v-0.889
				c0-1.68,0.896-2.782,2.568-2.782c0.643,0,1.157,0.121,1.59,0.308V466.547z"/>
			<path id="XMLID_334_" style="fill:#A5B7C6;" d="M286.298,469.878c-0.177-0.029-0.357-0.046-0.525-0.046
				c-0.895,0-1.51,0.548-1.51,1.613v3.908h-1.933v-7.172h1.873v0.784c0.451-0.673,1.14-0.977,2.021-0.977
				c0.414,0,0.848,0.128,1.095,0.337L286.298,469.878z"/>
			<path id="XMLID_331_" style="fill:#A5B7C6;" d="M293.966,471.757c0,0.222-0.016,0.488-0.037,0.651h-5.085
				c0.207,1.036,0.933,1.487,1.843,1.487c0.622,0,1.295-0.252,1.813-0.689l1.133,1.243c-0.815,0.748-1.851,1.089-3.057,1.089
				c-2.198,0-3.724-1.496-3.724-3.753c0-2.258,1.48-3.797,3.627-3.797C292.544,467.989,293.958,469.522,293.966,471.757z
				 M288.852,471.091h3.175c-0.178-0.918-0.732-1.436-1.561-1.436C289.555,469.654,289.021,470.202,288.852,471.091z"/>
			<path id="XMLID_328_" style="fill:#A5B7C6;" d="M301.619,471.757c0,0.222-0.016,0.488-0.037,0.651h-5.085
				c0.207,1.036,0.933,1.487,1.843,1.487c0.622,0,1.296-0.252,1.813-0.689l1.133,1.243c-0.815,0.748-1.851,1.089-3.058,1.089
				c-2.198,0-3.723-1.496-3.723-3.753c0-2.258,1.48-3.797,3.627-3.797C300.197,467.989,301.611,469.522,301.619,471.757z
				 M296.505,471.091h3.175c-0.178-0.918-0.733-1.436-1.561-1.436C297.208,469.654,296.675,470.202,296.505,471.091z"/>
			<path id="XMLID_325_" style="fill:#A5B7C6;" d="M309.965,471.764c0,2.154-1.495,3.775-3.472,3.775
				c-0.962,0-1.643-0.378-2.109-0.933v3.708h-1.925v-10.133h1.888v0.792c0.467-0.585,1.154-0.984,2.139-0.984
				C308.47,467.989,309.965,469.61,309.965,471.764z M304.287,471.764c0,1.133,0.748,1.977,1.844,1.977
				c1.14,0,1.85-0.881,1.85-1.977c0-1.095-0.71-1.976-1.85-1.976C305.035,469.788,304.287,470.632,304.287,471.764z"/>
			<path id="XMLID_322_" style="fill:#A5B7C6;" d="M313.068,465.835c0,0.696-0.541,1.23-1.236,1.23c-0.696,0-1.228-0.533-1.228-1.23
				c0-0.695,0.532-1.243,1.228-1.243C312.527,464.592,313.068,465.14,313.068,465.835z M312.809,475.353h-1.932v-7.172h1.932
				V475.353z"/>
			<path id="XMLID_320_" style="fill:#A5B7C6;" d="M316.032,470.735l2.702-2.554h2.368l-3.479,3.375l3.501,3.797h-2.376
				l-2.717-2.901v2.901h-1.932v-10.658h1.932V470.735z"/>
		</g>
		<g>
			<path style="fill:#A5B7C6;" d="M184.413,475.289v-1.055c-0.527,0.718-1.391,1.23-2.387,1.23c-1.846,0-3.149-1.406-3.149-3.706
				c0-2.256,1.289-3.721,3.149-3.721c0.952,0,1.816,0.469,2.387,1.245v-3.765h1.099v9.771H184.413z M184.413,473.37v-3.208
				c-0.395-0.615-1.245-1.143-2.124-1.143c-1.42,0-2.27,1.172-2.27,2.739c0,1.567,0.85,2.725,2.27,2.725
				C183.168,474.483,184.018,473.985,184.413,473.37z"/>
			<path style="fill:#A5B7C6;" d="M186.932,471.744c0-2.051,1.465-3.706,3.486-3.706c2.139,0,3.398,1.67,3.398,3.794v0.278h-5.727
				c0.088,1.333,1.025,2.446,2.549,2.446c0.806,0,1.626-0.322,2.182-0.894l0.527,0.718c-0.703,0.703-1.655,1.084-2.812,1.084
				C188.441,475.465,186.932,473.956,186.932,471.744z M190.404,468.946c-1.509,0-2.256,1.274-2.314,2.358h4.644
				C192.718,470.25,192.015,468.946,190.404,468.946z"/>
			<path style="fill:#A5B7C6;" d="M194.607,474.352l0.571-0.791c0.469,0.542,1.362,1.011,2.329,1.011c1.084,0,1.67-0.513,1.67-1.216
				c0-1.714-4.38-0.659-4.38-3.281c0-1.099,0.952-2.036,2.636-2.036c1.202,0,2.051,0.454,2.623,1.025l-0.513,0.762
				c-0.424-0.513-1.201-0.893-2.109-0.893c-0.966,0-1.567,0.483-1.567,1.113c0,1.553,4.379,0.527,4.379,3.281
				c0,1.186-0.952,2.139-2.783,2.139C196.307,475.465,195.325,475.113,194.607,474.352z"/>
			<path style="fill:#A5B7C6;" d="M201.478,466.471c0-0.41,0.337-0.747,0.732-0.747c0.41,0,0.747,0.337,0.747,0.747
				c0,0.41-0.337,0.732-0.747,0.732C201.814,467.203,201.478,466.881,201.478,466.471z M201.667,475.289v-7.075h1.099v7.075H201.667
				z"/>
			<path style="fill:#A5B7C6;" d="M204.583,477.105l0.556-0.82c0.586,0.703,1.289,0.967,2.3,0.967c1.172,0,2.271-0.571,2.271-2.124
				v-1.011c-0.513,0.718-1.377,1.26-2.373,1.26c-1.846,0-3.149-1.377-3.149-3.662c0-2.271,1.289-3.677,3.149-3.677
				c0.952,0,1.802,0.469,2.373,1.245v-1.069h1.099v6.87c0,2.344-1.641,3.076-3.369,3.076
				C206.237,478.16,205.417,477.925,204.583,477.105z M209.709,473.253v-3.091c-0.381-0.615-1.23-1.143-2.109-1.143
				c-1.421,0-2.27,1.128-2.27,2.695c0,1.553,0.849,2.695,2.27,2.695C208.479,474.41,209.328,473.868,209.709,473.253z"/>
			<path style="fill:#A5B7C6;" d="M217.414,475.289v-4.629c0-1.245-0.63-1.641-1.582-1.641c-0.864,0-1.685,0.527-2.094,1.099v5.171
				h-1.099v-7.075h1.099v1.025c0.497-0.586,1.464-1.201,2.519-1.201c1.48,0,2.256,0.747,2.256,2.285v4.966H217.414z"/>
			<path style="fill:#A5B7C6;" d="M219.933,471.744c0-2.051,1.465-3.706,3.486-3.706c2.139,0,3.398,1.67,3.398,3.794v0.278h-5.727
				c0.088,1.333,1.025,2.446,2.548,2.446c0.806,0,1.626-0.322,2.183-0.894l0.527,0.718c-0.703,0.703-1.655,1.084-2.813,1.084
				C221.442,475.465,219.933,473.956,219.933,471.744z M223.404,468.946c-1.509,0-2.256,1.274-2.314,2.358h4.643
				C225.719,470.25,225.016,468.946,223.404,468.946z"/>
			<path style="fill:#A5B7C6;" d="M233.351,475.289v-1.055c-0.527,0.718-1.392,1.23-2.388,1.23c-1.845,0-3.149-1.406-3.149-3.706
				c0-2.256,1.289-3.721,3.149-3.721c0.952,0,1.817,0.469,2.388,1.245v-3.765h1.098v9.771H233.351z M233.351,473.37v-3.208
				c-0.396-0.615-1.245-1.143-2.124-1.143c-1.421,0-2.27,1.172-2.27,2.739c0,1.567,0.85,2.725,2.27,2.725
				C232.105,474.483,232.955,473.985,233.351,473.37z"/>
			<path style="fill:#A5B7C6;" d="M239.692,475.289v-9.771h1.099v3.765c0.571-0.776,1.421-1.245,2.388-1.245
				c1.845,0,3.149,1.465,3.149,3.721c0,2.3-1.304,3.706-3.149,3.706c-0.996,0-1.86-0.513-2.388-1.23v1.055H239.692z M242.9,474.483
				c1.436,0,2.285-1.157,2.285-2.725c0-1.567-0.85-2.739-2.285-2.739c-0.864,0-1.729,0.527-2.109,1.143v3.208
				C241.172,473.985,242.036,474.483,242.9,474.483z"/>
			<path style="fill:#A5B7C6;" d="M247.529,477.061c0.161,0.073,0.425,0.117,0.6,0.117c0.483,0,0.806-0.161,1.055-0.747l0.469-1.069
				l-2.959-7.148h1.186l2.358,5.801l2.344-5.801h1.2l-3.544,8.511c-0.425,1.024-1.143,1.421-2.08,1.436
				c-0.234,0-0.6-0.044-0.806-0.103L247.529,477.061z"/>
		</g>
	</g>
</g>
</svg>
